<svg width="64" height="64" viewBox="0 0 64 64" fill="none" xmlns="http://www.w3.org/2000/svg">
<path d="M20 11C20 11.5523 20.4477 12 21 12H43C43.5523 12 44 11.5523 44 11V9C44 8.44772 43.5523 8 43 8H21C20.4477 8 20 8.44772 20 9V11Z" fill="#6A6D75"/>
<path d="M40 36C40 40.4183 36.4183 44 32 44C27.5817 44 24 40.4183 24 36C24 31.5817 27.5817 28 32 28C36.4183 28 40 31.5817 40 36Z" fill="#6A6D75"/>
<path fill-rule="evenodd" clip-rule="evenodd" d="M4 20C4 18 6 16 8 16H56C58 16 60 18 60 20V52C60 54 58 56 56 56H8C6 56 4 54 4 52V20ZM44 36C44 42.6274 38.6274 48 32 48C25.3726 48 20 42.6274 20 36C20 29.3726 25.3726 24 32 24C38.6274 24 44 29.3726 44 36Z" fill="#6A6D75"/>
</svg>
