<svg width="56" height="56" viewBox="0 0 56 56" fill="none" xmlns="http://www.w3.org/2000/svg">
<path fill-rule="evenodd" clip-rule="evenodd" d="M47.8302 47.7677C52.8789 42.7032 56 35.7161 56 28C56 20.2839 52.8789 13.2968 47.8302 8.23231C42.7608 3.14692 35.7479 0 28 0C20.2521 0 13.2392 3.14692 8.16976 8.23231C3.12112 13.2968 0 20.2839 0 28C0 35.7161 3.12112 42.7032 8.16976 47.7677C13.2392 52.8531 20.2521 56 28 56C35.7479 56 42.7608 52.8531 47.8302 47.7677ZM44.9706 44.9706C49.3137 40.6274 52 34.6274 52 28C52 22.0853 49.8604 16.6703 46.3129 12.4868C46.2563 12.5623 46.1937 12.6347 46.125 12.7034L12.7034 46.125C12.6347 46.1937 12.5623 46.2563 12.4868 46.3129C16.6703 49.8604 22.0853 52 28 52C34.6274 52 40.6274 49.3137 44.9706 44.9706ZM9.68706 43.5132C6.13961 39.3297 4 33.9147 4 28C4 21.3726 6.68629 15.3726 11.0294 11.0294C15.3726 6.68629 21.3726 4 28 4C33.9147 4 39.3297 6.13961 43.5132 9.68706C43.4377 9.74366 43.3653 9.80631 43.2966 9.87499L9.87498 43.2966C9.8063 43.3653 9.74366 43.4377 9.68706 43.5132Z" fill="#6A6D75"/>
</svg>
