<svg width="64" height="64" viewBox="0 0 64 64" fill="none" xmlns="http://www.w3.org/2000/svg">
<path fill-rule="evenodd" clip-rule="evenodd" d="M37.2354 40.0638C34.1561 42.527 30.25 44 26 44C16.0589 44 8 35.9411 8 26C8 16.0589 16.0589 8 26 8C35.9411 8 44 16.0589 44 26C44 30.25 42.5271 34.156 40.0638 37.2353L55.7071 52.8787C56.0977 53.2692 56.0977 53.9023 55.7071 54.2929L54.2929 55.7071C53.9024 56.0976 53.2692 56.0976 52.8787 55.7071L37.2354 40.0638ZM40.125 26.0625C40.125 33.829 33.829 40.125 26.0625 40.125C18.296 40.125 12 33.829 12 26.0625C12 18.296 18.296 12 26.0625 12C33.829 12 40.125 18.296 40.125 26.0625Z" fill="#6A6D75"/>
</svg>
